<svg xmlns="http://www.w3.org/2000/svg" xmlns:xlink="http://www.w3.org/1999/xlink" width="400" height="400" viewBox="0 0 400 400">
<rect data-name="background" width="100%" height="100%" fill="none"/><g data-name="container" data="container_num:7" fill="#000000" transform="translate(24.00172158859857,24) scale(1.7225348152017708)"><path xmlns="http://www.w3.org/2000/svg" d="M102.174 199.588c53.8 0 97.413-43.613 97.413-97.413S155.974 4.762 102.174 4.762 4.761 48.375 4.761 102.175s43.614 97.413 97.413 97.413zm0-189.826c50.957 0 92.413 41.457 92.413 92.413s-41.456 92.413-92.413 92.413c-50.957 0-92.413-41.457-92.413-92.413S51.218 9.762 102.174 9.762z"/><path xmlns="http://www.w3.org/2000/svg" d="M102.174 191.585c49.38 0 89.41-40.03 89.41-89.41s-40.03-89.41-89.41-89.41c-49.38 0-89.41 40.03-89.41 89.41s40.03 89.41 89.41 89.41zm0-176.82c48.198 0 87.41 39.212 87.41 87.41s-39.212 87.41-87.41 87.41c-48.198 0-87.41-39.212-87.41-87.41s39.212-87.41 87.41-87.41z"/><path xmlns="http://www.w3.org/2000/svg" d="M102.174 204.35c56.339 0 102.174-45.835 102.174-102.175S158.513 0 102.174 0C45.835 0 0 45.835 0 102.175S45.835 204.35 102.174 204.35zm0-202.35c55.236 0 100.174 44.938 100.174 100.175S157.411 202.35 102.174 202.35C46.938 202.35 2 157.411 2 102.175S46.938 2 102.174 2z"/></g><g data-name="icon" fill="#000000" data="id:7388877" transform="translate(158.51567377783903,129.11297842958984) scale(0.807057397783052)">
    
 <path d="m16.266 33.746c-1.0547 3.3516-2.8906 7.1367-5.6133 9.2852-0.23438 0.1875-0.5625 0.21484-0.82812 0.070312-0.26562-0.14453-0.41406-0.4375-0.38281-0.73437 0.67578-6.4453-0.015625-10.602-0.38281-13.988-0.39062-3.5898-0.41406-6.3594 1.6719-9.9219 1.3594-2.3242 3.2539-3.293 5.0898-3.3203 2.4609-0.035157 4.8867 1.668 5.9141 4.3203 0.84766-0.5 1.7969-0.93359 2.8516-1.3008 0 0 0.023437-0.007812 0.035156-0.011719 0.007812-0.003906 0.019531-0.007812 0.027344-0.007812 1.3594-0.40625 5.6016-1.0469 10.047-0.44922 2.4922 0.33594 5.0352 1.0586 7.1953 2.4023 1.1953-2.5781 3.793-4.2266 6.3125-4.1367 1.9062 0.070313 3.7969 1.1016 5.0234 3.5078 1.875 3.6758 1.6914 6.4375 1.0938 10-0.5625 3.3594-1.4922 7.4688-1.1875 13.945 0.015626 0.30078-0.15234 0.58203-0.42578 0.71094-0.27344 0.12891-0.59375 0.085937-0.82031-0.11719-1.5312-1.3594-2.7656-3.4922-3.6992-5.8164-0.41406-1.0312-0.77344-2.1016-1.0742-3.1484-0.76172 4.1758-2.5547 6.8398-4.7305 8.5273-1.4766 1.1406-3.1367 1.8281-4.7969 2.2227 6.4297 3.6523 11.805 5.0664 13.715 5.8906 0.31641 0.13672 0.5625 0.27734 0.73828 0.40625 0.15234-0.082031 0.33594-0.16406 0.55469-0.24219 1.5312-0.55859 5.2188-1.3594 9.9375-3.2578 0.027344-0.011719 0.054688-0.023437 0.078125-0.03125 1.2734-0.51562 2.6172-1.1094 4.0156-1.7969-1.6328-0.48438-3.2539-1.2695-4.6602-2.4961-2.2617-1.9727-4-5.0781-4.3438-9.9531-0.1875-2.668 0.074218-4.8945 0.66406-6.75-0.054687-0.19922-0.027344-0.41797 0.09375-0.60156 0.054688-0.082031 0.11719-0.14844 0.19141-0.20312 0.40234-1.0234 0.91406-1.9219 1.5078-2.7148 2.6328-3.5039 6.9492-4.8555 11.059-5.1641 3.0625-0.23438 5.9961 0.10938 7.9688 0.50391 0.23438-1.75 0.29688-1.8555 0.027343-3.8516-0.054687-0.41016 0.23438-0.78906 0.64453-0.84375 0.41016-0.054688 0.78906 0.23437 0.84375 0.64453 0.30078 2.25 0.23047 2.3008-0.046875 4.3984 0.097656 0.027344 0.19141 0.054688 0.27734 0.082032 1.5469-1.6289 1.6406-1.6641 3.6016-3.168 0.32812-0.25391 0.80078-0.19141 1.0508 0.13672 0.25391 0.32812 0.19141 0.80078-0.13672 1.0508-1.6875 1.2969-1.9297 1.4492-3.043 2.6094 2.9102 1.4492 4.8125 3.4844 5.8945 5.7812 0.8125 1.7227 1.1641 3.5977 1.125 5.4961v0.039062c0 0.023438 0 0.046875-0.003906 0.066406-0.070313 2.3281-0.72656 4.6875-1.8477 6.8359-1.9375 3.7188-5.2461 6.8008-9.2109 8.0234 3.7539 1.9688 6.0742 3.3008 14.996 4.2539 0.39062 0.042968 0.68359 0.38281 0.67188 0.77344-0.015625 0.32422-0.054688 1.3125-0.89453 2.3164-0.75391 0.89453-2.2031 1.8516-5.0859 2.1875-4.2422 0.49609-6.0703-0.35156-8.6289-1.6875 0.89453 4.8281 2.1367 8.6953 2.207 10.609 0.023437 0.70312-0.11719 1.2188-0.35938 1.543-0.44141 3.0547-0.5625 4.8477-0.92969 5.8047-0.1875 0.48438-0.4375 0.8125-0.75 1.0312-0.31641 0.21875-0.70703 0.34375-1.2227 0.34375h-0.11719c-0.007813 2.1562-0.082031 7.3789-1.0625 10.598-0.32422 1.0664-0.76172 1.9258-1.293 2.457-0.45312 0.45312-0.98438 0.69922-1.5781 0.70312l-0.30859-0.03125-0.28906-0.097656c-0.16016-0.074219-0.31641-0.17969-0.46094-0.32422-0.30078-0.29688-0.57812-0.78516-0.79688-1.4297-0.16406-0.49219-0.30469-1.0898-0.41797-1.75-0.015626 0.0625-0.03125 0.125-0.050782 0.1875-0.30859 1.1367-0.72656 2.0703-1.2344 2.6445-0.45703 0.51562-0.99219 0.78516-1.5898 0.79297-0.63281 0.007813-1.1758-0.23828-1.6289-0.70312-0.52734-0.54297-0.9375-1.4297-1.2109-2.5312-0.80859-3.2344-0.57422-8.418-0.45312-10.309-0.34375-0.089844-0.67969-0.20312-1.0078-0.33203-0.28906-0.11719-0.48438-0.25-0.63281-0.41797-0.19922-0.22656-0.33984-0.53906-0.39844-1.1289-0.09375-0.90234-0.070312-2.793-0.69531-7.1289-0.082032-0.30078-0.097656-0.65625-0.039063-1.0859 0.20312-1.4727 1.418-4.1523 2.8281-9.1094-0.67188 0.19141-1.3398 0.35156-1.9922 0.48438-0.007813 0-0.011719 0-0.015625 0.003906-4.1719 0.82422-7.9062 0.44531-10.078-0.26562-0.78906-0.25781-1.3906-0.57031-1.7656-0.87891-0.0625-0.050781-0.12109-0.10156-0.17578-0.15625-0.011718 0.007812-0.023437 0.015625-0.03125 0.023437-0.39844 0.28516-1.0156 0.5625-1.8164 0.77344-2.5977 0.6875-7.3125 0.79297-12.254-0.98438 0.33594 1.9375 0.73828 3.9844 1.5898 7.6055 1.2812 5.4453 2.0195 7.6797 2.2188 8.8438 0.17969 1.0742 0.007812 1.4805-0.48438 2.1055l-0.22656 0.20703-0.30469 0.15625c-0.28125 0.10937-0.76562 0.21094-1.4062 0.27734-0.60547 0.0625-1.3711 0.10938-2.2461 0.13281 0.007813 1.9609-0.066406 7.0469-1.0469 10.18-0.33984 1.082-0.79688 1.9453-1.3555 2.457-0.48047 0.44141-1.0352 0.65625-1.668 0.60938-0.58984-0.042969-1.1016-0.32031-1.5273-0.81641-0.48438-0.56641-0.85938-1.4609-1.1133-2.5547-0.011719-0.054688-0.023438-0.10938-0.035157-0.16406-0.011719 0.042969-0.023437 0.085938-0.03125 0.13281-0.27344 1.0469-0.62109 1.8906-1.0117 2.3906-0.41406 0.53125-0.90625 0.75781-1.4141 0.71875-0.58984-0.039063-1.1016-0.30469-1.5312-0.76562-0.50781-0.54297-0.90625-1.4023-1.1836-2.457-0.83984-3.1836-0.67578-8.2773-0.57812-10.379-0.37891-0.050781-0.75-0.10156-1.1016-0.15625-1.9688-0.30859-3.5234-0.72266-4.2734-1.1914-0.59766-0.37109-0.82031-0.83594-0.80859-1.2617 0.007812-0.16797 0.16406-0.8125 0.49609-1.8398 0.85547-2.6641 2.8477-8.2695 5.5039-15.145-2.4844 1.1094-4.3711 1.7695-8.4258 1.0547-2.8594-0.50391-4.25-1.543-4.9492-2.4766-0.78516-1.0508-0.76563-2.0391-0.76172-2.3633 0.007812-0.39453 0.32031-0.71484 0.71484-0.73438 8.9609-0.4375 11.352-1.6328 15.215-3.3828-3.8867-1.4492-7.0156-4.7148-8.7305-8.5391-0.40234-0.89062-0.72656-1.8125-0.96484-2.7422zm4.1836-13.434c-0.71094-2.2109-2.6211-3.7031-4.6055-3.6758-1.3945 0.019531-2.7891 0.8125-3.8203 2.5781-1.8906 3.2266-1.8281 5.7461-1.4727 9 0.33594 3.0977 0.92969 6.832 0.55469 12.312 2.7656-3.1719 4.2188-8.1719 4.6445-11.125 0.007812-0.054688 0.023438-0.10938 0.039062-0.15625 0.09375-1.8281 0.55078-3.6055 1.4297-5.2148 0.75391-1.3828 1.8164-2.6484 3.2266-3.7148zm3.8945-0.46484c-2.8008 1.125-4.6914 2.8555-5.8047 4.8984-0.6875 1.2578-1.0781 2.6328-1.2109 4.0508 0.95312-0.015625 2.1641-0.17188 3.4336-0.80078 1.6016-0.79688 3.2852-2.3438 4.7031-5.2422-0.60547-1.1602-0.91016-2.1758-1.1172-2.9062zm17.414 1.9492c-2.0977-1.5234-4.7188-2.2852-7.2617-2.625-3.5781-0.48047-7.0156-0.12109-8.7227 0.23047 0.60937 2.1172 2.125 6.5938 9.707 9.7812 4.4609 1.875 8.7344 0.011718 10.289-0.79688-0.28516-1.6055-0.83203-2.9492-1.5781-4.0742-0.64844-0.97266-1.4375-1.7734-2.3281-2.4375-0.035156-0.023438-0.070312-0.046875-0.10156-0.074219zm5.6406 6.8945c0.17969 2.0938 0.88281 5.6992 2.1797 8.9297 0.55469 1.3828 1.2148 2.6953 2 3.7773-0.050781-5.4531 0.75391-9.1289 1.2656-12.188 0.53906-3.2305 0.75-5.7422-0.95312-9.0703-0.92188-1.8125-2.3086-2.6406-3.7422-2.6914-2.0508-0.074219-4.1367 1.3633-5.0078 3.5234 0.87109 0.70312 1.6484 1.5312 2.2969 2.5078 0.88281 1.3281 1.5352 2.9375 1.8438 4.8711 0.007812 0.011719 0.015625 0.023438 0.023438 0.035157 0.054687 0.09375 0.085937 0.19922 0.09375 0.30469zm-11.859 15.957c2.0039-0.23828 4.1211-0.875 5.9297-2.2773 2.1211-1.6445 3.7852-4.3555 4.3438-8.6953 0.17188-1.3555 0.21875-2.5898 0.14453-3.7188-1.8906 0.89062-5.8125 2.2969-10.023 0.98047 0.22266 0.14844 0.36328 0.40625 0.33594 0.69141l-0.30859 3.5547c-0.035157 0.41406-0.39844 0.71875-0.8125 0.68359-0.41016-0.035157-0.71875-0.39844-0.67969-0.8125l0.30859-3.5547c0.035156-0.40625 0.38672-0.70703 0.79297-0.68359-0.22266-0.078125-0.44531-0.16406-0.66797-0.25781-4.5234-1.9023-7.0547-4.2266-8.5273-6.3164-1.5195 2.7578-3.2852 4.2617-4.9453 5.0859-1.543 0.76562-3.0078 0.94922-4.1484 0.96094 0.050781 1.8828 0.51953 3.7969 1.3203 5.5781 1.8164 4.043 5.3477 7.4297 9.7109 8.2617 0.46875 0.089844 3.5 0.88672 6.9297 0.54688 0.027343-0.007812 0.058593-0.015625 0.089843-0.023437 0.070313-0.015625 0.14062-0.015625 0.21484-0.007813zm1.8789 7.4727c4.8672 1.9648 9.6094 1.9297 12.156 1.25 0.39844-0.10547 0.74219-0.22656 1.0117-0.35938-0.23438-0.10156-0.52344-0.22266-0.80859-0.32812-2.5117-0.90625-7.4883-2.4648-13.27-5.7969 0.41406 2.25 0.67188 3.8203 0.90625 5.2344zm24.832-1.8281c-3.5547 1.3711-6.4531 2.125-8.1914 2.6406-0.29297 0.085937-0.58594 0.1875-0.82812 0.27734 0.26172 0.14844 0.59766 0.28906 0.99219 0.41797 1.8867 0.61719 5.0391 0.94531 8.6016 0.35156-0.25-1.418-0.37109-2.3203-0.57422-3.6914zm6.1484-2.7695c-1.6484 0.85547-3.2305 1.582-4.7188 2.1992 0.23047 1.5469 0.34766 2.4688 0.61328 3.9688 0.78516-0.18359 1.5859-0.41406 2.3906-0.69531 0.14453-0.050782 0.29688-0.054688 0.44141-0.015625 0.24219 0.0625 0.42969 0.24219 0.51562 0.47656 0.050781 0.14062 0.054687 0.29688 0.015625 0.44141-1.2852 4.8125-2.4844 7.6914-2.9727 9.4375-0.10156 0.36719-0.17188 0.67578-0.19531 0.9375-0.011719 0.12109-0.023437 0.22656-0.007812 0.3125 0.007812 0.03125 0.019531 0.0625 0.03125 0.097656 0.007812 0.015625 0.019531 0.027344 0.03125 0.042968 0.14844 0.17188 0.42969 0.22266 0.82031 0.28906 2.8555 0.49219 4.9062 0.51953 6.9688 0.48828 0.050781-0.007812 0.10547-0.011718 0.16016-0.011718 0.023437 0 0.046874 0.003906 0.070312 0.007812 2.1328-0.039062 4.3086-0.12109 7.4375 0.19922 0.015625-0.0625 0.035156-0.15625 0.039062-0.22656 0.007813-0.13281 0.003907-0.28516-0.007812-0.45312-0.015625-0.23438-0.046875-0.49609-0.09375-0.78516-0.375-2.3438-1.5859-6.2695-2.3398-10.961-0.023437-0.15625 0-0.31641 0.070313-0.46094 0.10938-0.21094 0.3125-0.35938 0.54688-0.39844 0.15625-0.023437 0.32031 0 0.46094 0.074219 1.5508 0.78906 2.707 1.4844 4.0508 1.9102-0.050781-1.4688 0.0625-2.3164 0.23438-3.9219-2.4102-0.82812-4.0703-1.8203-6.4414-3.0312-0.19922 0.55859-0.51953 1.3008-1.0195 1.9023-0.67578 0.80859-1.6406 1.3828-3.0039 1.1641-1.3711-0.22266-2.2422-0.625-2.8359-1.1094-0.65625-0.53125-0.99219-1.1797-1.2578-1.8711zm-8.8008-19.129c-0.45312 1.6133-0.64062 3.5273-0.48047 5.793 0.30469 4.3633 1.8086 7.1641 3.832 8.9297 1.7227 1.5039 3.8008 2.2617 5.7891 2.6133 0.058594 0 0.11719 0.003906 0.17578 0.015625 0.0625 0.007812 0.12109 0.023437 0.17578 0.042968 3.3828 0.52344 6.4258-0.089843 6.8945-0.15234 4.4062-0.57812 8.125-3.7578 10.172-7.6875 0.91016-1.75 1.4922-3.6484 1.6484-5.543-2.3281-0.42188-5.8164-2.6523-8.3828-8.4453-1.4297 1.1211-3.9336 2.4492-8.5664 4.0898-4.0703 1.4414-7.9688 1.125-10.219 0.625-0.39844-0.085937-0.74609-0.18359-1.0391-0.27734zm20.301-7.3164c-1.6992-0.44922-5.082-0.99219-8.6484-0.72266-3.6914 0.28125-7.6055 1.4219-9.9727 4.5703-0.45703 0.60938-0.85547 1.293-1.1836 2.0586 0.24219 0.074219 0.53516 0.14844 0.87109 0.22266 2.0664 0.46094 5.6484 0.75 9.3906-0.57422 7.3828-2.6133 8.8945-4.2344 9.543-5.5586zm7.9375 9.8125c-0.058594-1.3984-0.37109-2.7695-0.97656-4.0469-0.99609-2.1094-2.7891-3.9492-5.5391-5.2383-0.16406 0.38672-0.38281 0.79688-0.74219 1.2461 1.5234 3.6484 3.3984 5.8555 5.125 7.043 0.76562 0.52734 1.4961 0.84766 2.1328 0.99609zm-3.5898 23.848c0.97656 0.13672 2.1094 0.14062 3.543-0.027343 2.3125-0.26953 3.5078-0.94531 4.1133-1.6641 0.21094-0.25 0.33984-0.5 0.41797-0.72266-3.4922-0.39844-5.9531-0.85938-7.8984-1.3984-0.15625 1.457-0.25391 2.2656-0.17578 3.8125zm-4.6484 12.426c-2.625-0.25391-4.5781-0.22656-6.418-0.19141l-0.25781 5.7734c1.5039-0.14453 3.0078-0.31641 4.4219-0.37891 0.023438 0 0.050781-0.003907 0.078125-0.003907 0.28906-0.011719 0.57031-0.019531 0.85156-0.019531 0.15234 0 0.27734-0.007812 0.37109-0.074219 0.19141-0.13281 0.25-0.40234 0.34375-0.78906 0.21094-0.89844 0.33594-2.2812 0.61328-4.3125zm-12.328 7.1641c-0.125 1.9453-0.32422 6.6719 0.42578 9.6602 0.17188 0.67969 0.38672 1.2656 0.68359 1.6719 0.1875 0.25781 0.39844 0.43359 0.68359 0.42969 0.26562-0.003906 0.45703-0.21484 0.64453-0.49219 0.30859-0.45312 0.55078-1.0977 0.75391-1.8398 0.69922-2.5742 0.87891-6.2891 0.91797-8.4453v-0.9375c-1.418 0.097656-2.8125 0.11328-4.1094-0.050781zm5.6172-0.074219c0 0.29688-0.003907 0.67188-0.015625 1.1133 0.007812 2.1836 0.10156 5.9141 0.58203 8.4883 0.14062 0.75781 0.3125 1.4102 0.53516 1.8672 0.050781 0.10547 0.10547 0.19922 0.16406 0.27734 0.027344 0.035156 0.070312 0.078125 0.09375 0.097656 0.26172-0.015625 0.46875-0.19922 0.65625-0.44531 0.3125-0.40234 0.55469-0.97656 0.75781-1.6523 0.92969-3.0469 0.99219-7.9648 1-10.098-1.2227 0.082031-2.5 0.22656-3.7734 0.34766zm-8.1328-7.832c0.33203 2.6523 0.39453 4.1758 0.44531 5.082 0.015625 0.28906 0.03125 0.51172 0.058593 0.68359 0.003907 0.035156 0.015626 0.082031 0.023438 0.11328 0.015625 0.007813 0.039062 0.015625 0.054688 0.023438 0.41406 0.16797 0.84766 0.29297 1.3008 0.39062 0.058593 0.007812 0.11719 0.019531 0.17578 0.035156 1.418 0.27344 2.9922 0.24219 4.6016 0.12891l0.26172-5.8789c-1.9297 0.019531-3.8984-0.039062-6.5664-0.5-0.125-0.019531-0.24219-0.046875-0.35156-0.070312zm-29.406 6.7656c-1.2656 0.003906-2.668-0.027344-4.1133-0.089844-0.023437 0.51953-0.0625 1.25-0.12109 2.1055-0.066406 2.2344-0.03125 5.3086 0.48047 7.5039 0.16406 0.69141 0.36719 1.293 0.64844 1.7227 0.17578 0.26953 0.36719 0.47266 0.63672 0.49219 0.28516 0.019531 0.50781-0.14453 0.70703-0.39062 0.32031-0.39062 0.57031-0.96094 0.77734-1.6328 0.93359-2.9844 0.99609-7.8242 0.98047-9.7109zm-4.7734-1.6211c2.6211 0.13672 5.1758 0.16016 7.0234 0.074219 0.80469-0.039063 1.4688-0.09375 1.9375-0.17969 0.14844-0.027344 0.30859-0.070313 0.38281-0.09375 0.23438-0.34375 0.1875-0.60938-0.019531-1.4609-0.3125-1.3125-1.0039-3.6094-2.0664-8.125-1.7969-7.6289-1.6016-8.3047-2.9844-15.602-2.7148 0.1875-5.1094-0.22656-6.2266-0.45313-4.1445 10.227-7.3828 19.203-8.5391 22.801-0.17969 0.55469-0.32031 1.0742-0.38672 1.3203 0.082032 0.054688 0.21094 0.13672 0.32422 0.19141 0.73438 0.33594 1.9609 0.60938 3.4531 0.84375 2.0547 0.32031 4.5938 0.54688 7.0703 0.67969h0.03125zm-4.7383 1.1367c-0.10156 2.0859-0.25391 6.832 0.53125 9.8203 0.17578 0.66016 0.39062 1.2266 0.67969 1.6328 0.1875 0.25781 0.39453 0.44922 0.66797 0.47656 0.019531-0.015624 0.070312-0.054687 0.10156-0.085937 0.058594-0.066406 0.11719-0.14453 0.16797-0.23438 0.24219-0.40234 0.44531-0.98828 0.625-1.6719 0.56641-2.1719 0.85938-5.3008 1.0117-7.5664 0.023437-0.82812 0.0625-1.543 0.09375-2.0547-1.3203-0.078125-2.6367-0.18359-3.8828-0.31641zm-0.89844-21.766c0.58594-1.5 1.2031-3.0508 1.8398-4.6367-4.0352 1.8203-6.375 3.0703-15.164 3.5664 0.066407 0.22656 0.17969 0.48047 0.375 0.74219 0.5625 0.75 1.7188 1.4961 4.0078 1.8984 4.3477 0.76563 5.9648-0.24609 8.9375-1.5703zm45.008-3.5625c0.14844 0.3125 0.35156 0.60938 0.66016 0.85938 0.44531 0.36328 1.1055 0.625 2.1289 0.79297 0.94531 0.15234 1.5234-0.42969 1.9023-1.0469 0.13672-0.22656 0.25391-0.46094 0.34766-0.6875-1.1562 0.14062-2.9883 0.28125-5.0391 0.082031zm-41.875-16.742c0.015626-0.41406 0.36719-0.73437 0.78125-0.71484 0.41406 0.015625 0.73438 0.36719 0.71875 0.78125l-0.15625 3.6328c-0.019531 0.41406-0.36719 0.73438-0.78125 0.71875-0.41406-0.019531-0.73437-0.36719-0.71484-0.78125l0.15625-3.6328zm-1.1406 8.0469c-0.25781-0.32422-0.20313-0.79688 0.125-1.0547 0.32422-0.25781 0.79687-0.20312 1.0547 0.125 1.7734 2.2461 3.25 3.0742 4.5703 2.9922 1.2891-0.078126 2.3438-1.0117 3.25-2.0547 0.26953-0.3125 0.74609-0.34766 1.0586-0.074219 0.3125 0.26953 0.34375 0.74219 0.074219 1.0547-1.1758 1.3555-2.6094 2.4688-4.2891 2.5703-1.6484 0.10156-3.6172-0.75-5.8359-3.5625zm41.832-5.9805c-0.011719-0.41406 0.3125-0.75781 0.72656-0.77344 0.41406-0.011719 0.75781 0.3125 0.76953 0.72656l0.10547 3.5625c0.011719 0.41406-0.3125 0.75781-0.72656 0.77344-0.41406 0.011719-0.75781-0.3125-0.77344-0.72656zm6.7422-0.54688c0.003906-0.41406 0.34766-0.74219 0.75781-0.73828 0.41406 0.003907 0.74609 0.34375 0.73828 0.75781l-0.050781 3.6367c-0.007813 0.41406-0.34766 0.74609-0.76172 0.73828-0.41406-0.003906-0.74609-0.34766-0.73828-0.75781zm1.0547 7.125c0.27344-0.30859 0.75-0.33594 1.0586-0.0625 0.30859 0.27344 0.33594 0.75 0.0625 1.0586-2.3789 2.6797-4.3906 3.4141-6.0352 3.2188-1.6719-0.19922-3.0391-1.3906-4.1328-2.8125-0.25391-0.32813-0.19141-0.79688 0.13672-1.0508 0.32812-0.25391 0.79687-0.19141 1.0508 0.13672 0.84375 1.0938 1.8398 2.0859 3.125 2.2383 1.3125 0.15625 2.8359-0.58594 4.7344-2.7266zm-46.734 24.18c-0.24219 0.054688-0.50781-0.015625-0.69922-0.20312-0.26953-0.27344-1.8047-1.8359-2.6562-3.6836-0.63672-1.375-0.87891-2.8984-0.19141-4.2266 0.42969-0.83594 0.94531-1.2148 1.4219-1.3555 0.74219-0.21484 1.5391 0.125 2.2109 0.77734 0.25391 0.24609 0.49219 0.53125 0.70312 0.82031 0.21094-0.50391 0.42969-0.87891 0.64062-1.1523 0.35938-0.46094 0.73047-0.6875 1.0703-0.78125 0.57031-0.16406 1.1094 0.015625 1.5469 0.35156 0.53906 0.41406 0.88281 1.0742 0.92578 1.2227 0.48047 1.6328-0.027344 3.293-0.87109 4.7031-1.1562 1.9336-2.9141 3.3789-3.0547 3.5234-0.28906 0.28906-0.75391 0.28906-1.0469 0.007813zm0.28906-1.3398c0.54688-0.49219 1.707-1.5898 2.5273-2.9609 0.625-1.0469 1.0703-2.2656 0.73438-3.4727-0.03125-0.046875-0.16406-0.26172-0.30469-0.40234-0.0625-0.058594-0.12891-0.11719-0.20703-0.16016-0.039062-0.023438-0.082031-0.046875-0.12891-0.03125-0.14844 0.042968-0.26953 0.19922-0.42578 0.44531-0.26172 0.42188-0.51562 1.0586-0.76172 1.9844-0.078125 0.30078-0.33594 0.51953-0.64062 0.55469-0.30859 0.03125-0.60547-0.125-0.74609-0.39844-0.070312-0.13672-0.60156-1.1719-1.2891-1.8359-0.13281-0.12891-0.27344-0.24609-0.42188-0.32812-0.10938-0.0625-0.21484-0.11719-0.32812-0.085938-0.19141 0.054688-0.33984 0.26562-0.51172 0.60156-0.47656 0.91797-0.21875 1.9609 0.21875 2.9102 0.69531 1.5039 1.9062 2.7891 2.2852 3.1797z" fill-rule="evenodd"/>

    </g><g data-name="business_name" fill="#000000" data="id:226" transform="translate(93.07884153506211,210.3960343306863) scale(0.8353215380600664)"><path d="M52.36,54.16c0.12-0.12,0.28-0.2,0.4-0.2c0.24,0,0.44,0.24,0.44,0.48c0,0.16-0.04,0.28-0.16,0.4c-2.48,2.48-5.4,3.4-8.6,3.4c-7.56,0-16.68-5.2-25.44-7.88c-2.68,2.24-5.88,3.6-9.96,3.6c-2.68,0-4.32-1.48-4.32-3c0-1.48,1.6-2.96,5.36-2.96c2.2,0,4.4,0.2,6.6,0.52c1.44-1.72,2.76-3.84,4.08-6.2c-14.44-0.32-20.76-9.64-20.76-17.12c0-5,2.84-9.16,8-9.16c10.24,0,14.24,14.32,14.24,14.32c0,0.44-0.32,0.72-0.6,0.72c-0.24,0-0.44-0.2-0.44-0.72c0,0-4-13.28-12.96-13.28c-3.84,0-5.84,3.32-5.84,7.48c0,7.12,5.88,16.76,18.84,16.88c6.52-12.24,12.32-30.16,24.12-30.16c3.12,0,4.52,2.16,4.52,5.32c0,8.16-9.44,23.04-24.32,25.4c-1.6,2.72-3.28,5.2-5.28,7.16c10.64,2.2,20.52,6.76,26.92,6.76c2.12,0,3.88-0.48,5.16-1.76z M26.84,39.76c-0.16,0.36-0.48,1.04-0.68,1.24c14.36-2.64,22.28-17.28,22.28-24.72c0-2.64-0.96-4.36-3-4.36c-9.4,0-12.12,16-18.6,27.84z M8.8,53c2.64,0,4.92-1.32,7-3.48c-1.96-0.44-3.88-0.72-5.72-0.72c-2.92,0-3.96,1-3.96,2.04c0,1.08,1.16,2.16,2.68,2.16z M57.12,38.56l0.64,0.04s-3.56,9.4-7.72,9.4c-2.56,0-4.44-1.44-4.44-4.36c0-1.96,5.44-15.64,5.44-15.64l3.32,0s-5.72,14.68-5.72,17.04c0,1.2,0.72,1.88,1.68,1.88c3.2,0,6.8-8.36,6.8-8.36z M54.04,24.52c-1.24,0-2.28-1-2.28-2.28c0-1.24,1.04-2.24,2.28-2.24s2.24,1,2.24,2.24c0,1.28-1,2.28-2.24,2.28z M67.84,27.52c0.28,0,0.44,0.24,0.44,0.48s-0.16,0.48-0.44,0.48l-4.2,0c-2.48,6.8-5.24,14.76-5.24,16.56c0,1.2,0.72,1.88,1.68,1.88c3.2,0,6.8-8.36,6.8-8.36l0.64,0.04s-3.56,9.4-7.72,9.4c-2.56,0-4.44-1.44-4.44-4.36c0-1.56,2.52-8.8,4.88-15.16l-3.28,0c-0.32,0-0.48-0.24-0.48-0.48s0.16-0.48,0.48-0.48l3.64,0c1.92-5.16,3.64-9.52,3.64-9.52l3.32,0s-1.64,4.32-3.56,9.52l3.84,0z M77.56,27.52c0.28,0,0.44,0.24,0.44,0.48s-0.16,0.48-0.44,0.48l-4.2,0c-2.48,6.8-5.24,14.76-5.24,16.56c0,1.2,0.72,1.88,1.68,1.88c3.2,0,6.8-8.36,6.8-8.36l0.64,0.04s-3.56,9.4-7.72,9.4c-2.56,0-4.44-1.44-4.44-4.36c0-1.56,2.52-8.8,4.88-15.16l-3.28,0c-0.32,0-0.48-0.24-0.48-0.48s0.16-0.48,0.48-0.48l3.64,0c1.92-5.16,3.64-9.52,3.64-9.52l3.32,0s-1.64,4.32-3.56,9.52l3.84,0z M86.32,38.56l0.64,0.04s-3.56,9.4-7.72,9.4c-2.56,0-4.44-1.44-4.44-4.36c0-2.96,8.48-25.64,8.48-25.64l3.32,0s-8.76,23.76-8.76,27.04c0,1.2,0.72,1.88,1.68,1.88c3.2,0,6.8-8.36,6.8-8.36z M100.92,38.52l0.68,0.08s-3.48,9.36-9.8,9.36c-5.84,0-6.44-4.32-6.44-6.12c0-3.48,2.72-9.76,3.04-9.76c0,0,1.96-4.12,6.2-4.12c2.2,0,3.2,1.4,3.2,3.28c0,3.6-3.68,8.92-9.12,9.24c-0.2,0.88-0.28,1.6-0.28,2.4c0,1.08,0.32,4,3.68,4c5.2,0,8.84-8.36,8.84-8.36z M91.8,32c0,0-2.04,3.92-2.92,7.56c4.76-0.44,8.04-5.56,8.04-8.52c0-1.2-0.56-2.08-1.84-2.08c-1.84,0-3.28,3.04-3.28,3.04z  M139.48,38.52l0.68,0.04s-3.6,9-7.76,9c-1.36,0-2.52-0.6-3.32-1.44c-1.24,1.08-2.84,1.92-4.88,1.92c-0.92,0-3.52-0.28-4.32-3.36c-1.28,1.64-3.24,3.28-6.16,3.28c-1.08,0-4.52-0.36-4.52-5.28c0-1.96,5.12-14.72,5.12-14.72l3.32,0s-5.4,13.72-5.4,16.08c0,2.28,1.24,2.84,2.16,2.84c2.96,0,4.92-4.76,4.92-4.76l2.08-5.2c1.16-3.2,2.52-6.48,2.52-6.48l0.04-0.04l3.28,0.04s-4.52,11.32-4.52,13.68c0,2.28,1.2,2.84,2.16,2.84c1.36,0,2.52-1,3.36-2.12c-0.16-0.4-0.28-0.8-0.28-1.2c0-0.92,0.72-1.64,1.36-1.64c0.16,0,0.32,0.04,0.48,0.12l5.48-14.04l1.88,0l-5,13.4s-0.44,1.4-1.52,2.92c0,1.32,0.96,2.08,2.04,2.08c3.2,0,6.8-7.96,6.8-7.96z M159.84,38.52l0.68,0.08s-3.6,9.4-7.76,9.4c-2.56,0-4.44-1.44-4.44-4.36c-1.72,2.56-3.72,4.36-5.52,4.36c-3,0-4.24-2.32-4.24-5.36c0-5.92,4.72-14.64,10.44-14.64c2.2,0,3.2,1.48,3.32,3.64c0.84-2.12,1.44-3.64,1.44-3.64l3.32,0s-5.68,14.68-5.68,17.04c0,1.2,0.72,1.88,1.64,1.88c3.2,0,6.8-8.4,6.8-8.4z M143.08,46.96c3.28,0,8-10.04,8-15.12c0-1.68-0.56-2.84-1.84-2.84c-3.4,0-7.72,10.24-7.72,15.28c0,1.6,0.48,2.68,1.56,2.68z M177.04,38.52l0.64,0.04s-3.6,9.36-7.72,9.36c-2.64,0-4.48-1.44-4.48-4.36c0-1.16,3-9.2,4.24-12.4c-0.44,0.08-0.88,0.12-1.32,0.12c-1.52,0-2.88-0.48-3.84-1.32l-4.56,10.32l-0.76,0l4.84-10.76c-0.6-0.72-0.96-1.6-0.96-2.6c0-0.6,0.2-1.16,0.2-1.16l2.6,0s-0.2,0.64-0.2,1.08c0,1.68,2.08,2.44,4.12,2.44c1.44,0,2.84-0.36,3.52-1.04l0.6,0.64c0.04,0-5.44,14.48-5.44,16.08c0,1.2,0.72,1.88,1.68,1.88c3.2,0,6.84-8.28,6.84-8.32z M194.08,38.52l0.64,0.04s-3.6,9.36-7.72,9.36c-2.64,0-4.48-1.44-4.48-4.36c0-1.16,3-9.2,4.24-12.4c-0.44,0.08-0.88,0.12-1.32,0.12c-1.52,0-2.88-0.48-3.84-1.32l-4.56,10.32l-0.76,0l4.84-10.76c-0.6-0.72-0.96-1.6-0.96-2.6c0-0.6,0.2-1.16,0.2-1.16l2.6,0s-0.2,0.64-0.2,1.08c0,1.68,2.08,2.44,4.12,2.44c1.44,0,2.84-0.36,3.52-1.04l0.6,0.64c0.04,0-5.44,14.48-5.44,16.08c0,1.2,0.72,1.88,1.68,1.88c3.2,0,6.84-8.28,6.84-8.32z M203.84,38.56l0.64,0.04s-3.56,9.4-7.72,9.4c-2.56,0-4.44-1.44-4.44-4.36c0-1.96,5.44-15.64,5.44-15.64l3.32,0s-5.72,14.68-5.72,17.04c0,1.2,0.72,1.88,1.68,1.88c3.2,0,6.8-8.36,6.8-8.36z M200.76,24.52c-1.24,0-2.28-1-2.28-2.28c0-1.24,1.04-2.24,2.28-2.24s2.24,1,2.24,2.24c0,1.28-1,2.28-2.24,2.28z M222.08,38.6l0.64,0.04s-1.96,4.36-6.96,4.36c-0.44,0-0.88-0.04-1.32-0.08c-1.88,2.92-4.36,5.08-6.8,5.08c-3.36,0-4.76-2.44-4.76-5.64c0-5.92,4.84-14.36,10.96-14.36c2.84,0,4,2.04,4,4.84s-1.16,6.32-2.92,9.28c0.36,0.04,0.76,0.08,1.12,0.08c4.2,0,6.04-3.6,6.04-3.6z M213.56,41.92c1.68-3,2.92-6.8,2.92-9.48c0-2.04-0.72-3.44-2.4-3.44c-2.36,0-4.76,3.84-4.76,7.4c0,2.44,1.12,4.76,4.24,5.52z M207.96,46.96c1.76,0,3.64-1.8,5.16-4.28c-3.44-0.92-4.76-3.64-4.76-6.52c0-0.48,0.04-1,0.12-1.52c-1.52,3-2.56,6.6-2.56,9.12c0,1.92,0.6,3.2,2.04,3.2z M239.12,38.52l0.64,0.04s-3.6,9.36-7.72,9.36c-2.64,0-4.48-1.44-4.48-4.36c0-1.16,3-9.2,4.24-12.4c-0.44,0.08-0.88,0.12-1.32,0.12c-1.52,0-2.88-0.48-3.84-1.32l-4.56,10.32l-0.76,0l4.84-10.76c-0.6-0.72-0.96-1.6-0.96-2.6c0-0.6,0.2-1.16,0.2-1.16l2.6,0s-0.2,0.64-0.2,1.08c0,1.68,2.08,2.44,4.12,2.44c1.44,0,2.84-0.36,3.52-1.04l0.6,0.64c0.04,0-5.44,14.48-5.44,16.08c0,1.2,0.72,1.88,1.68,1.88c3.2,0,6.84-8.28,6.84-8.32z M255.32,38.6l0.68,0.04s-3.52,9.4-13,9.4c-3.88,0-4.44-5.04-4.44-8c0-2.84,0.12-2.48,0.52-2.48c0.2,0,0.44,0.16,0.44,0.44c0,0,0,0.08-0.04,0.2c2.52-1.92,7.48-10.24,11.52-10.24c1.32,0,1.92,1.16,1.92,1.68c0,0.12-0.04,0.2-0.12,0.2c-2.72-0.04-2.32,13.68-7.2,17.32c6.88-1.36,9.72-8.56,9.72-8.56z M239.48,39.48c0,2.52,0.28,7.4,2.72,7.4c3.52,0,4.28-13.2,6.92-17.52c-2.72,1.88-7.52,8.6-9.64,10.12z"/></g></svg>